<svg xmlns="http://www.w3.org/2000/svg" class="japan-path" style="height: 200px;" viewBox="0 8.899999618530273 275.6499938964844 52.099998474121094" data-asc="1.009"><g fill="#766076"><g fill="#766076" transform="translate(0, 0)"><path d="M29.75 19.80Q29.40 19.80 29.18 19.57Q28.95 19.35 28.95 19.10Q28.95 18.85 29.20 18.40Q29.45 17.95 29.45 17.55Q29.45 16.40 28.28 15.87Q27.10 15.35 25.85 15.35Q22.15 15.35 18.13 17.85Q14.10 20.35 13.40 23.85Q13.65 25.95 15.48 27.77Q17.30 29.60 19.70 30.92Q22.10 32.25 24.45 33.60Q26.80 34.95 28.40 36.80Q30 38.65 30 40.57Q30 42.50 28.60 44.32Q27.20 46.15 25.83 47.40Q24.45 48.65 24.45 48.72Q24.45 48.80 24.60 48.80Q27.65 48.80 32.95 45.45L33.45 45.10Q33.80 44.90 33.98 44.90Q34.15 44.90 34.35 45.20Q34.55 45.50 34.55 45.85Q34.55 46.20 33.90 46.55Q31 49.30 23.08 51.80Q15.15 54.30 8.75 54.30Q0 54.30 0 49.20Q0 48.45 1.50 47.05Q3.80 44.95 4.30 44.95Q4.80 44.95 6.85 46.20Q8.90 47.45 12 48.70Q15.10 49.95 18.15 49.95Q21.20 49.95 22.83 48.05Q24.45 46.15 24.45 44.15Q24.45 42.15 22.75 40.55Q21.05 38.95 18.63 37.72Q16.20 36.50 13.75 35.20Q11.30 33.90 9.60 32.05Q7.90 30.20 7.90 28.00Q7.90 24.45 11.85 20.55Q15.80 16.65 20.90 14.25Q26 11.85 29.60 11.85Q34.10 11.85 34.10 14.85Q34.10 16.65 32.48 18.22Q30.85 19.80 29.75 19.80ZM45.25 44.05L45.05 45.45Q45.05 46.35 45.83 47.32Q46.60 48.30 47.65 48.30Q48.45 48.30 48.95 47.95Q50.05 47.20 50.33 46.92Q50.60 46.65 51.22 46.65Q51.85 46.65 51.85 47.10Q51.85 47.60 49.50 50.25Q48.75 51.10 47.30 52.05Q45.85 53.00 44.73 53.00Q43.60 53.00 43.02 52.62Q42.45 52.25 42.20 51.45Q41.90 50.35 41.90 48.75Q41.90 48.55 41.65 48.55Q41.40 48.55 40.50 49.55Q37.70 52.45 35.98 52.45Q34.25 52.45 33.32 51.55Q32.40 50.65 32.40 49.25Q32.40 46.80 33.70 44.57Q35 42.35 36.80 41.00Q40.80 38.05 43 38.05Q46.30 38.15 46.30 40.40Q46.30 41.20 45.60 41.97Q44.90 42.75 44.30 42.75Q43.70 42.75 42.65 41.70Q41.60 40.65 40.35 40.65Q39.10 40.65 38.30 41.67Q37.50 42.70 37.50 44.30Q37.50 46.90 40.25 46.90Q41.35 46.90 42.08 46.35Q42.80 45.80 43.10 45.15Q43.95 43.45 44.65 43.45Q45.25 43.45 45.25 44.05ZM50.80 46.15Q50.80 45.35 52.35 43.52Q53.90 41.70 54.88 41.70Q55.85 41.70 56.32 42.45Q56.80 43.20 56.90 44.10Q57 45.00 57.47 45.75Q57.95 46.50 58.88 46.50Q59.80 46.50 60.52 45.67Q61.25 44.85 61.70 43.82Q62.15 42.80 62.90 41.97Q63.65 41.15 64.38 41.15Q65.10 41.15 65.40 41.75Q68.50 48.40 71.70 48.40Q72.20 48.40 72.60 48.25Q73 48.10 73.20 48.10Q73.80 48.10 73.80 49.05Q73.80 50.75 72.03 52.10Q70.25 53.45 68.40 53.45Q66.55 53.45 65.28 52.25Q64 51.05 63.52 49.77Q63.05 48.50 62.82 47.30Q62.60 46.10 62.35 46.10Q61.95 46.10 60.77 47.67Q59.60 49.25 58.13 50.85Q56.65 52.45 55.50 52.45Q54.30 52.30 53.60 51.27Q52.90 50.25 52.70 49.15Q52.25 46.15 50.80 46.15ZM63.95 35.10Q63.95 34.10 65.55 33.60Q68 32.55 73.55 30.35Q74.55 22.75 76.55 22.75Q77.85 22.75 77.85 26.90Q77.85 28.10 77.80 28.70Q85.40 25.80 88 25.15Q90.60 24.50 92.15 24.50Q94.50 24.50 94.50 26.20Q94.50 26.75 93.80 27.10Q90.70 28.65 89.95 28.65Q89.80 28.65 89.45 28.42Q89.10 28.20 88.65 28.20Q88.20 28.20 86.80 28.55Q83.95 29.30 77.45 31.45Q76.85 35.35 75.70 37.05Q75.90 42.75 77.20 44.75Q77.80 45.70 78.92 46.40Q80.05 47.10 81.70 47.10Q83.35 47.10 84.95 45.60Q85.25 45.30 85.45 45.30Q85.85 45.30 85.85 45.95Q85.85 48.05 83.05 50.17Q80.25 52.30 77.70 52.30Q72.65 52.30 72.65 44.10Q72.65 38.95 73.25 33Q69.10 34.60 67.13 35.60Q65.15 36.60 64.80 36.60Q64.45 36.60 64.20 36.10Q63.95 35.60 63.95 35.10ZM95.55 45.20Q93.20 45.20 91.85 44.00Q90.50 42.80 90.30 40.95Q89.50 41.55 89.50 43.17Q89.50 44.80 90.43 46.02Q91.35 47.25 92.73 47.25Q94.10 47.25 94.83 46.55Q95.55 45.85 95.55 45.20M97.50 41.85Q97.65 42.30 97.88 42.30Q98.10 42.30 98.65 42.02Q99.20 41.75 99.60 41.75Q100 41.75 100 42.25Q100 42.75 98.93 43.90Q97.85 45.05 97.10 45.05Q96.05 47.90 93.63 50.32Q91.20 52.75 88.65 52.75Q86.85 52.75 85.65 51.57Q84.45 50.40 84.45 48.12Q84.45 45.85 86.35 43.17Q88.25 40.50 90.25 40.50L90.25 40.30Q90.25 39.20 91 38.52Q91.75 37.85 92.85 37.85Q96.25 37.85 97.50 41.85ZM98.95 43.90L97.60 44.00Q96.70 44.00 96.70 43.55Q96.70 42.85 98.48 40.87Q100.25 38.90 101.65 38.90Q102.25 38.90 102.73 39.25Q103.20 39.60 103.25 40.10L103.50 42.35Q103.65 42.55 103.80 42.55Q103.95 42.55 104.60 41.75Q106.70 39.30 108.35 39.30Q109 39.30 109.40 39.50Q109.80 39.70 110.33 40.27Q110.85 40.85 110.90 40.90Q111.25 40.75 111.60 40.75Q112.15 40.75 112.15 41.42Q112.15 42.10 110.20 43.92Q108.25 45.75 107.30 45.75Q106.35 45.75 105.70 44.90Q105.05 44.05 104.75 44.05Q103.60 44.05 103.60 45.25Q103.60 46.15 104.43 48.30Q105.25 50.45 105.25 50.85Q105.25 51.85 104.23 52.42Q103.20 53.00 101.98 53.00Q100.75 53.00 100 52.60Q99.25 52.20 99.25 51.50L100.65 45.45Q100.65 43.90 98.95 43.90ZM113.13 34.90Q113.13 34.90 112.74 34.47Q112.35 34.05 112.35 32.80Q112.35 31.55 113.13 30.70Q113.90 29.85 115.05 29.85Q116.20 29.85 116.98 30.70Q117.75 31.55 117.75 32.80Q117.75 34.05 116.98 34.90Q116.20 35.75 115.05 35.75Q113.90 35.75 113.13 34.90M123.50 45.80Q124.00 45.40 124.40 45.40Q125.10 45.40 125.10 46.30Q125.10 47.55 122.00 50.02Q118.90 52.50 116.65 52.50Q114.40 52.50 113.15 50.90Q111.90 49.30 111.90 46.77Q111.90 44.25 112.75 41.90Q113.60 39.55 114.45 39.55Q114.85 39.60 114.85 40.77Q114.85 41.95 115.20 43.35Q115.55 44.75 116.73 46.02Q117.90 47.30 119.78 47.30Q121.65 47.30 123.50 45.80ZM124.05 46.15Q124.05 45.35 125.60 43.52Q127.15 41.70 128.13 41.70Q129.10 41.70 129.58 42.45Q130.05 43.20 130.15 44.10Q130.25 45.00 130.73 45.75Q131.20 46.50 132.13 46.50Q133.05 46.50 133.78 45.67Q134.50 44.85 134.95 43.82Q135.40 42.80 136.15 41.97Q136.90 41.15 137.63 41.15Q138.35 41.15 138.65 41.75Q141.75 48.40 144.95 48.40Q145.45 48.40 145.85 48.25Q146.25 48.10 146.45 48.10Q147.05 48.10 147.05 49.05Q147.05 50.75 145.28 52.10Q143.50 53.45 141.65 53.45Q139.80 53.45 138.53 52.25Q137.25 51.05 136.78 49.77Q136.30 48.50 136.08 47.30Q135.85 46.10 135.60 46.10Q135.20 46.10 134.03 47.67Q132.85 49.25 131.38 50.85Q129.90 52.45 128.75 52.45Q127.55 52.30 126.85 51.27Q126.15 50.25 125.95 49.15Q125.50 46.15 124.05 46.15ZM147.03 34.90Q147.03 34.90 146.64 34.47Q146.25 34.05 146.25 32.80Q146.25 31.55 147.03 30.70Q147.80 29.85 148.95 29.85Q150.10 29.85 150.88 30.70Q151.65 31.55 151.65 32.80Q151.65 34.05 150.88 34.90Q150.10 35.75 148.95 35.75Q147.80 35.75 147.03 34.90M157.40 45.80Q157.90 45.40 158.30 45.40Q159 45.40 159 46.30Q159 47.55 155.90 50.02Q152.80 52.50 150.55 52.50Q148.30 52.50 147.05 50.90Q145.80 49.30 145.80 46.77Q145.80 44.25 146.65 41.90Q147.50 39.55 148.35 39.55Q148.75 39.60 148.75 40.77Q148.75 41.95 149.10 43.35Q149.45 44.75 150.63 46.02Q151.80 47.30 153.68 47.30Q155.55 47.30 157.40 45.80ZM165.35 48.05Q165.35 52.85 162.30 56.35Q162 56.70 161.72 56.70Q161.45 56.70 161.25 56.25Q161.25 56.10 162 54.85Q162.75 53.60 162.75 52.57Q162.75 51.55 162.27 51.20Q161.80 50.85 161.20 50.80Q160.60 50.75 160.13 50.27Q159.65 49.80 159.65 48.67Q159.65 47.55 160.52 46.55Q161.40 45.55 163.05 45.55Q165.10 45.55 165.35 48.05ZM189.00 29.60Q189.00 28.05 190.42 25.35Q191.85 22.65 193.50 22.65Q194.45 22.65 194.45 23.40Q194.45 23.65 193.75 24.67Q193.05 25.70 193.05 26.20Q193.05 28.70 196.15 28.70Q197.95 28.70 200.27 27.05Q202.60 25.40 204.45 23.15Q206.30 20.90 207.60 18.60Q208.90 16.30 208.90 15.02Q208.90 13.75 208.02 13.02Q207.15 12.30 205.65 12.30Q202.80 12.30 199.35 14.40Q195.90 16.50 193.00 19.70Q190.10 22.90 188.12 27.10Q186.15 31.30 186.15 35.40Q186.15 39.50 188.72 42.27Q191.30 45.05 195.15 45.05Q197.25 45.05 199.47 44.00Q201.70 42.95 203.50 41.35Q206.15 38.85 207.55 37.10Q207.90 36.55 208.17 36.55Q208.45 36.55 208.65 36.77Q208.85 37.00 208.85 37.32Q208.85 37.65 208.47 38.97Q208.10 40.30 207.27 44.77Q206.45 49.25 206.45 51.27Q206.45 53.30 206.70 54.55Q207.05 56.55 207.40 56.90Q207.45 56.95 207.70 57.05Q208.25 57.30 208.25 57.70Q208.25 58.80 207.38 59.90Q206.50 61 205.80 61Q205.10 61 204.75 60.85Q204.40 60.70 204.17 60.35Q203.95 60 203.80 59.65Q203.65 59.30 203.57 58.72Q203.50 58.15 203.47 57.75Q203.45 57.35 203.42 56.65Q203.40 55.95 203.38 55.02Q203.35 54.10 203.60 52.17Q203.85 50.25 204.22 48.57Q204.60 46.90 204.95 45.47Q205.30 44.05 205.55 43.12Q205.80 42.20 205.80 42.07Q205.80 41.95 205.57 41.95Q205.35 41.95 203.65 43.40Q201.95 44.85 199.82 46.60Q197.70 48.35 194.47 49.80Q191.25 51.25 187.85 51.25Q184.45 51.25 182.40 48.55Q180.35 45.85 180.35 41.50Q180.35 37.15 182.42 32.07Q184.50 27.00 187.80 22.95Q191.10 18.90 195.05 15.67Q199.00 12.45 202.97 10.67Q206.95 8.90 209.97 8.90Q213 8.90 213.30 11.95Q213.30 15.30 209.42 20.32Q205.55 25.35 200.47 29.07Q195.40 32.80 192.20 32.80Q189.00 32.80 189.00 29.60ZM210.30 43.90L208.95 44.00Q208.05 44.00 208.05 43.55Q208.05 42.85 209.82 40.87Q211.60 38.90 213 38.90Q213.60 38.90 214.07 39.25Q214.55 39.60 214.60 40.10L214.85 42.35Q215 42.55 215.15 42.55Q215.30 42.55 215.95 41.75Q218.05 39.30 219.70 39.30Q220.35 39.30 220.75 39.50Q221.15 39.70 221.68 40.27Q222.20 40.85 222.25 40.90Q222.60 40.75 222.95 40.75Q223.50 40.75 223.50 41.42Q223.50 42.10 221.55 43.92Q219.60 45.75 218.65 45.75Q217.70 45.75 217.05 44.90Q216.40 44.05 216.10 44.05Q214.95 44.05 214.95 45.25Q214.95 46.15 215.78 48.30Q216.60 50.45 216.60 50.85Q216.60 51.85 215.57 52.42Q214.55 53.00 213.32 53.00Q212.10 53.00 211.35 52.60Q210.60 52.20 210.60 51.50L212 45.45Q212 43.90 210.30 43.90ZM227.95 44.70Q228.80 44.40 229.68 42.77Q230.55 41.15 230.55 40.10Q230.55 39.05 229.75 39.00Q228.55 39.00 228.05 40.07Q227.55 41.15 227.55 42.42Q227.55 43.70 227.95 44.70M232.25 47.95Q233.65 47.95 234.58 47.32Q235.50 46.70 236.33 45.70Q237.15 44.70 237.63 44.70Q238.10 44.70 238.10 45.15Q238.10 45.45 237.90 45.85Q236.25 48.50 233.80 50.52Q231.35 52.55 228.60 52.55Q225.85 52.55 224.63 51.22Q223.40 49.90 223.40 47.70Q223.40 43.90 226.25 39.92Q229.10 35.95 232.15 35.95Q233.75 35.95 233.75 37.25Q233.75 39.00 232.65 40.87Q231.55 42.75 228.60 45.95Q229.95 47.95 232.25 47.95ZM240.00 44.70Q240.85 44.40 241.73 42.77Q242.60 41.15 242.60 40.10Q242.60 39.05 241.80 39.00Q240.60 39.00 240.10 40.07Q239.60 41.15 239.60 42.42Q239.60 43.70 240.00 44.70M244.30 47.95Q245.70 47.95 246.63 47.32Q247.55 46.70 248.38 45.70Q249.20 44.70 249.68 44.70Q250.15 44.70 250.15 45.15Q250.15 45.45 249.95 45.85Q248.30 48.50 245.85 50.52Q243.40 52.55 240.65 52.55Q237.90 52.55 236.68 51.22Q235.45 49.90 235.45 47.70Q235.45 43.90 238.30 39.92Q241.15 35.95 244.20 35.95Q245.80 35.95 245.80 37.25Q245.80 39.00 244.70 40.87Q243.60 42.75 240.65 45.95Q242.00 47.95 244.30 47.95ZM252.35 43.97Q252.35 43.97 252.35 44.86Q252.35 45.75 253.40 46.97Q254.45 48.20 256.18 48.20Q257.90 48.20 259.03 47.77Q260.15 47.35 260.75 46.92Q261.35 46.50 261.65 46.50Q262.10 46.50 262.10 46.95Q262.10 48.50 259.20 50.62Q256.30 52.75 252.45 52.75Q250.00 52.75 248.78 51.52Q247.55 50.30 247.55 48.30Q247.55 44.70 250.63 41.12Q253.70 37.55 257.70 37.55Q258.65 37.55 259.23 38.12Q259.80 38.70 259.80 39.77Q259.80 40.85 258.58 42.17Q257.35 43.50 256.10 43.50Q255.75 43.50 255.75 43.15Q255.75 42.80 256.13 42.40Q256.50 42.00 256.50 41.42Q256.50 40.85 256.13 40.30Q255.75 39.75 255.30 39.75Q253.95 39.75 253.15 40.97Q252.35 42.20 252.35 43.97ZM265.50 44.70Q266.35 44.40 267.23 42.77Q268.10 41.15 268.10 40.10Q268.10 39.05 267.30 39.00Q266.10 39.00 265.60 40.07Q265.10 41.15 265.10 42.42Q265.10 43.70 265.50 44.70M269.80 47.95Q271.20 47.95 272.13 47.32Q273.05 46.70 273.88 45.70Q274.70 44.70 275.18 44.70Q275.65 44.70 275.65 45.15Q275.65 45.45 275.45 45.85Q273.80 48.50 271.35 50.52Q268.90 52.55 266.15 52.55Q263.40 52.55 262.18 51.22Q260.95 49.90 260.95 47.70Q260.95 43.90 263.80 39.92Q266.65 35.95 269.70 35.95Q271.30 35.95 271.30 37.25Q271.30 39.00 270.20 40.87Q269.10 42.75 266.15 45.95Q267.50 47.95 269.80 47.95Z"/></g><g fill="#766076" transform="translate(0, 72.5)"><path d=""/></g></g></svg>