<?xml version="1.0" encoding="UTF-8"?>
<svg class="japan-path" style="height:300px" data-asc="1.009" viewBox="0 5.7 202.7 65.4" xmlns="http://www.w3.org/2000/svg">
<g transform="translate(0)" fill="#aa6f5f">
<path d="m23.6 48.3-0.9 0.15q-2.8 0-4.52-4.08-1.73-4.07-1.73-10.4 0-6.32 1.4-13.37 0-0.4-0.5-0.4-1.25 0.1-1.6 0.77-0.35 0.68-1.15 3.43t-1.72 7.75q-0.93 5-0.93 10.1t1.28 8.1q1.27 3 4.42 3 2.1 0 4.33-1.38 2.22-1.37 2.22-2.92 0-0.75-0.6-0.75m-21.9-29.6q5.5-2.95 14.65-5.45t16.05-2.85q1.1 0.15 1.1 1.12 0 0.98-0.57 2.53-0.58 1.55-1.48 1.6-4.7 0.3-15.42 3.1-10.73 2.8-15.03 5.9-0.3 0.15-0.55 0.15-0.45 0-0.45-0.85t0.68-2.95q0.67-2.1 1.02-2.3zm35.65 26.5q-2.35 0-3.7-1.2t-1.55-3.05q-0.8 0.6-0.8 2.22 0 1.63 0.93 2.85 0.92 1.23 2.3 1.23 1.37 0 2.1-0.7 0.72-0.7 0.72-1.35m1.95-3.35q0.15 0.45 0.38 0.45 0.22 0 0.77-0.28 0.55-0.27 0.95-0.27t0.4 0.5-1.07 1.65q-1.08 1.15-1.83 1.15-1.05 2.85-3.47 5.27-2.43 2.43-4.98 2.43-1.8 0-3-1.18-1.2-1.17-1.2-3.45 0-2.27 1.9-4.95 1.9-2.67 3.9-2.67v-0.2q0-1.1 0.75-1.78 0.75-0.67 1.85-0.67 3.4 0 4.65 4zm2.75-2.85q1.2-3 2.25-6.87 1.05-3.88 1.05-5.73t-0.32-2.7q-0.33-0.85-0.78-0.85-1.65 0-2.2 9.2v6.95m13.3 5.35q-0.25 0-0.47 0.27-0.23 0.28-0.58 0.65-0.35 0.38-1.5 1-1.15 0.63-2.35 0.63-2.15 0-3.67-1.73-1.53-1.72-1.53-2.6 0-0.87-0.25-0.97-0.25 0-0.65 0.75-1.05 1.95-1.05 4.57 0 2.63 1.43 4.1 1.42 1.48 3.02 1.48 2.75 0 5.5-2.88 2.75-2.87 2.75-4.32 0-0.95-0.65-0.95m-13.25-2.95v0.3q0 0.6 0.13 0.6 0.12 0 0.32-0.2 1.1-3.15 2.75-5.48 1.65-2.32 3.6-2.32 1.75 0 1.75 2.35 0 0.85-0.82 2.32-0.83 1.48-1.58 1.48-0.3 0-0.6-0.48-0.3-0.47-1.05-0.47-1.45 0-2.45 1.27-1 1.28-1.45 3.28-0.7 3.4-0.7 6.5 0 1.5-1.35 1.5-0.25 0-0.25-0.45 0.2-3.25 0.2-8.15v-7.1q0-9.25 0.65-12.6 0.75-3.7 1.9-4.8 0.7-0.65 1.65-0.65 2.7 0 2.7 4.05t-1.87 9.95q-1.88 5.9-3.53 9.1zm23.1 24.05q1.2 0 1.2-9.9 0-2.1-0.05-3.1-3.15 4.25-3.15 7.65 0 1.95 0.47 3.65 0.48 1.7 1.53 1.7m-7.9-25.95-0.2 2q0 2.15 1.42 3.62 1.43 1.48 3.48 1.53 1.25-0.05 2.33-0.73 1.07-0.67 1.52-1.27l0.4-0.65q0.05-1.7 0.5-2.85 0.7-1.95 1.65-1.95h0.15q0.55 0.2 0.55 1.6 0 0.6-1.15 2.35l-0.4 0.65q0 3.85 0.05 5.7 2.9-2.75 4.3-4.5 0.65-0.5 1.02-0.5 0.38 0 0.38 0.37 0 0.38-0.65 0.93-1.5 1.2-5 5.05l0.15 7.65q0 6.2-0.85 9.4t-3.2 3.2q-1.9 0-3.15-1.95t-1.25-4.25q0-4.4 1.82-7.63 1.83-3.22 5.18-6.52-0.1-3.6-0.1-3.95t-0.28-0.35q-0.27 0-0.62 0.5-1.75 1.85-2.55 2.6-2.15 2.1-4.32 2.1-2.18 0-3.46-1.45-1.27-1.45-1.27-4.13 0-2.67 1.02-4.9 1.03-2.22 1.93-2.22 0.6 0 0.6 0.55zm24.4 5.7q-2.35 0-3.7-1.2t-1.55-3.05q-0.8 0.6-0.8 2.22 0 1.63 0.93 2.85 0.92 1.23 2.3 1.23 1.37 0 2.09-0.7 0.73-0.7 0.73-1.35m1.95-3.35q0.15 0.45 0.38 0.45 0.22 0 0.77-0.28 0.55-0.27 0.95-0.27t0.4 0.5-1.07 1.65q-1.08 1.15-1.83 1.15-1.05 2.85-3.48 5.27-2.42 2.43-4.97 2.43-1.8 0-3-1.18-1.2-1.17-1.2-3.45 0-2.27 1.9-4.95 1.9-2.67 3.9-2.67v-0.2q0-1.1 0.75-1.78 0.75-0.67 1.85-0.67 3.4 0 4.65 4zm8.8 6.2q0 4.8-3.05 8.3-0.3 0.35-0.57 0.35-0.28 0-0.48-0.45 0-0.15 0.75-1.4t0.75-2.28q0-1.02-0.47-1.37-0.48-0.35-1.08-0.4t-1.08-0.53q-0.47-0.47-0.47-1.6 0-1.12 0.88-2.12 0.87-1 2.52-1 2.05 0 2.3 2.5zm27.9-32.7q0.9-0.5 1.3-0.5t0.4 0.35q-0.5 2.75-0.5 3.2 0 2.2 1.8 12.15t1.8 11.92q0 1.98-0.4 3.55-0.4 1.58-1.22 3.28-0.83 1.7-2.53 2.82-1.7 1.13-4.1 1.13t-5.92-3.33q-3.53-3.32-3.53-5.27 0-0.65 0.38-1.03 0.37-0.37 1.47-1.45 1.1-1.07 1.73-1.8 0.62-0.72 0.97-0.72 0.2 0 1.6 2.12 1.4 2.13 3.43 4.25 2.02 2.13 3.82 2.13t1.8-4.6q0-3.6-1.72-12.58-1.73-8.97-1.73-11.52t1.15-4.1m-10.6-1.5q2.55-1.6 10.7-4.88 8.15-3.27 10.5-3.27 0.85 0 0.85 0.87 0 0.88-0.55 2.25-0.55 1.38-0.95 2.03-0.5 0.65-2.6 1.35-4.35 1.35-10.12 3.65-5.78 2.3-7.2 3.25-1.43 0.95-1.85 0.95-0.43 0-0.43-0.93 0-0.92 0.63-2.97 0.62-2.05 1.02-2.3zm30.7 30.2-0.2 1.4q0 0.9 0.78 1.87 0.77 0.98 1.82 0.98 0.8 0 1.3-0.35 1.1-0.75 1.38-1.03 0.27-0.27 0.9-0.27 0.62 0 0.62 0.45 0 0.5-2.35 3.15-0.75 0.85-2.2 1.8t-2.57 0.95q-1.13 0-1.7-0.38-0.58-0.37-0.83-1.17-0.3-1.1-0.3-2.7 0-0.2-0.25-0.2t-1.15 1q-2.8 2.9-4.52 2.9-1.73 0-2.65-0.9-0.93-0.9-0.93-2.3 0-2.45 1.3-4.68 1.3-2.22 3.1-3.57 4-2.95 6.2-2.95 3.3 0.1 3.3 2.35 0 0.8-0.7 1.57-0.7 0.78-1.3 0.78t-1.65-1.05-2.3-1.05-2.05 1.02q-0.8 1.03-0.8 2.63 0 2.6 2.75 2.6 1.1 0 1.83-0.55 0.72-0.55 1.02-1.2 0.85-1.7 1.55-1.7 0.6 0 0.6 0.6zm12.15-0.35q-1.4 0-2.05 5.15 1.3 1.55 3.05 1.55 0.8 0 1.8-0.5 0.4-1.2 0.4-2.5t-1.05-2.5-2.15-1.2m-4 2.9 0.35-6.3q0-0.3-0.17-0.3-0.18 0-0.5 0.45-0.33 0.45-0.88 0.45t-0.55-0.35 0.45-0.88q0.45-0.52 1.02-1.9 0.58-1.37 1.03-2.3 0.45-0.92 0.85-0.92 0.55 0 0.85 0.47 0.3 0.48 0.3 0.88t-0.45 2.7-0.45 3.37q0 1.08 0.25 1.08 0.1 0 0.93-1.08 0.82-1.07 2-2.15 1.17-1.07 2.17-1.07 3.7 0 3.7 4.25 0 2.95-1.65 5.4 2.5-1.75 4.55-3.65l0.7-0.65q0.6 0 0.6 0.35 0 0.85-2.13 2.82-2.12 1.98-5.44 3.93-3.33 1.95-6.13 2.55-0.1 2.5-0.1 4.05t0.17 2.77q0.18 1.23 0.18 1.81 0 0.57-0.45 0.94-0.45 0.38-0.95 0.38-0.65 0-0.7-0.85t-0.05-4.15 0.05-4.7q-1.35 0-2.15-1.23-0.8-1.22-0.8-2.32t0.98-2.45q0.97-1.35 2.42-1.4zm25.55-2.55-0.2 1.4q0 0.9 0.78 1.87 0.77 0.98 1.82 0.98 0.8 0 1.3-0.35 1.1-0.75 1.38-1.03 0.27-0.27 0.9-0.27 0.62 0 0.62 0.45 0 0.5-2.35 3.15-0.75 0.85-2.2 1.8t-2.57 0.95q-1.13 0-1.7-0.38-0.58-0.37-0.83-1.17-0.3-1.1-0.3-2.7 0-0.2-0.25-0.2t-1.15 1q-2.8 2.9-4.52 2.9-1.73 0-2.65-0.9-0.93-0.9-0.93-2.3 0-2.45 1.3-4.68 1.3-2.22 3.1-3.57 4-2.95 6.2-2.95 3.3 0.1 3.3 2.35 0 0.8-0.7 1.57-0.7 0.78-1.3 0.78t-1.65-1.05-2.3-1.05-2.05 1.02q-0.8 1.03-0.8 2.63 0 2.6 2.75 2.6 1.1 0 1.83-0.55 0.72-0.55 1.02-1.2 0.85-1.7 1.55-1.7 0.6 0 0.6 0.6zm5.55 2.1q0-0.8 1.55-2.63 1.55-1.82 2.53-1.82 0.97 0 1.45 0.75 0.47 0.75 0.57 1.65t0.58 1.65q0.47 0.75 1.4 0.75 0.92 0 1.65-0.83 0.72-0.82 1.17-1.85 0.45-1.02 1.2-1.85 0.75-0.82 1.48-0.82 0.72 0 1.02 0.6 3.1 6.65 6.3 6.65 0.5 0 0.9-0.15t0.6-0.15q0.6 0 0.6 0.95 0 1.7-1.77 3.05-1.78 1.35-3.63 1.35t-3.12-1.2q-1.28-1.2-1.75-2.48-0.48-1.27-0.7-2.47-0.23-1.2-0.48-1.2-0.4 0-1.57 1.57-1.18 1.58-2.65 3.18-1.48 1.6-2.63 1.6-1.2-0.15-1.9-1.18-0.7-1.02-0.9-2.12-0.45-3-1.9-3z"/>
</g>
<g transform="translate(0 72.5)" fill="#fcc9b9"/>
</svg>
