<svg class="japan-path" style="height: 300px;" xmlns="http://www.w3.org/2000/svg" viewBox="0 85.0999984741211 114.75 58.5" data-asc="1.009"><g fill="#43a432"><g fill="#43a432" transform="translate(0, 0)"><path d=""/></g><g fill="#43a432" transform="translate(0, 72.5)"><path d="M7.50 20.85Q7.15 22.45 6.60 31.60Q6.05 40.75 6.05 45.32Q6.05 49.90 6.20 51.22Q6.35 52.55 7.25 52.55Q7.95 52.55 8.70 51.92Q9.45 51.30 9.45 50.70Q9.45 50.10 8.97 46.02Q8.50 41.95 8.50 38.62Q8.50 35.30 8.83 28.20Q9.15 21.10 9.40 19.90Q9.40 19.45 9.05 19.45Q8.55 19.45 8.15 20.00Q7.75 20.55 7.50 20.85M24.70 49.15Q23.85 52.55 22.30 52.55Q20 52.55 20 46.80Q20 45.20 20.28 43.40Q20.55 41.60 20.55 41.50Q20.55 40.10 19.33 36.27Q18.10 32.45 16.15 28.12Q14.20 23.80 11.28 20.50Q8.35 17.20 5.50 17.20Q3.70 17.20 2.40 19.10Q1.40 20.45 1.10 20.45Q0.60 20.45 0 18.95Q1.45 16.95 4.50 14.77Q7.55 12.60 10.40 12.60Q13.95 12.60 17.57 18.27Q21.20 23.95 23.30 32.20Q23.40 31.90 23.83 30.22Q24.25 28.55 24.43 28.00Q24.60 27.45 25.05 25.90Q25.50 24.35 25.88 23.37Q26.25 22.40 26.80 20.90Q27.55 18.95 29.60 14.90Q30.35 13.45 33.10 13.10Q33.70 13.10 33.70 13.55Q33.70 13.80 33.50 14.05Q31.20 16.70 28.53 23.40Q25.85 30.10 24.20 36.55Q25.10 41.70 25.10 44.55Q25.10 47.40 24.70 49.15ZM38.30 45.20Q35.95 45.20 34.60 44.00Q33.25 42.80 33.05 40.95Q32.25 41.55 32.25 43.17Q32.25 44.80 33.18 46.02Q34.10 47.25 35.48 47.25Q36.85 47.25 37.58 46.55Q38.30 45.85 38.30 45.20M40.25 41.85Q40.40 42.30 40.63 42.30Q40.85 42.30 41.40 42.02Q41.95 41.75 42.35 41.75Q42.75 41.75 42.75 42.25Q42.75 42.75 41.68 43.90Q40.60 45.05 39.85 45.05Q38.80 47.90 36.38 50.32Q33.95 52.75 31.40 52.75Q29.60 52.75 28.40 51.57Q27.20 50.40 27.20 48.12Q27.20 45.85 29.10 43.17Q31.00 40.50 33 40.50L33 40.30Q33 39.20 33.75 38.52Q34.50 37.85 35.60 37.85Q39 37.85 40.25 41.85ZM41.70 43.90L40.35 44.00Q39.45 44.00 39.45 43.55Q39.45 42.85 41.23 40.87Q43.00 38.90 44.40 38.90Q45.00 38.90 45.48 39.25Q45.95 39.60 46.00 40.10L46.25 42.35Q46.40 42.55 46.55 42.55Q46.70 42.55 47.35 41.75Q49.45 39.30 51.10 39.30Q51.75 39.30 52.15 39.50Q52.55 39.70 53.08 40.27Q53.60 40.85 53.65 40.90Q54.00 40.75 54.35 40.75Q54.90 40.75 54.90 41.42Q54.90 42.10 52.95 43.92Q51.00 45.75 50.05 45.75Q49.10 45.75 48.45 44.90Q47.80 44.05 47.50 44.05Q46.35 44.05 46.35 45.25Q46.35 46.15 47.18 48.30Q48.00 50.45 48.00 50.85Q48.00 51.85 46.98 52.42Q45.95 53.00 44.73 53.00Q43.50 53.00 42.75 52.60Q42.00 52.20 42.00 51.50L43.40 45.45Q43.40 43.90 41.70 43.90ZM66.90 42.35L66.75 43.75Q66.75 44.80 67.43 45.65Q68.10 46.50 69.33 46.50Q70.55 46.50 71.28 45.95Q72 45.40 72 44.80Q72 44.70 71.65 44.25Q70.45 42.95 70.45 41.20Q70.45 39.45 71.53 37.75Q72.60 36.05 73.65 36.05Q74.70 36.05 75.25 38.35Q75.45 39.20 76.08 39.92Q76.70 40.65 77.75 40.65Q77.85 40.65 78.30 40.42Q78.75 40.20 79 40.20Q79.45 40.20 79.45 40.95Q79.45 42.90 77.45 44.32Q75.45 45.75 73.80 45.75Q73.45 45.75 73.30 45.70Q72.45 47.40 71.15 49.05Q69.85 50.70 69.15 51.35Q67.45 52.90 65.90 52.90Q63.15 52.90 63.15 48.85Q63.05 48.60 62.85 48.60Q62.65 48.60 62.55 48.75Q60.05 52.10 57.03 52.10Q54 52.10 54 47.65Q54 44.90 55.23 41.75Q56.45 38.60 57.80 38.60Q58.40 38.60 58.40 39.50L58.20 41.45Q58.20 43.15 58.90 44.25Q60 45.95 61.33 45.95Q62.65 45.95 63.55 45.32Q64.45 44.70 64.80 43.95Q65.75 41.90 66.60 41.90Q66.90 41.95 66.90 42.35ZM90.15 44.05L89.95 45.45Q89.95 46.35 90.72 47.32Q91.50 48.30 92.55 48.30Q93.35 48.30 93.85 47.95Q94.95 47.20 95.22 46.92Q95.50 46.65 96.13 46.65Q96.75 46.65 96.75 47.10Q96.75 47.60 94.40 50.25Q93.65 51.10 92.20 52.05Q90.75 53.00 89.63 53.00Q88.50 53.00 87.92 52.62Q87.35 52.25 87.10 51.45Q86.80 50.35 86.80 48.75Q86.80 48.55 86.55 48.55Q86.30 48.55 85.40 49.55Q82.60 52.45 80.88 52.45Q79.15 52.45 78.22 51.55Q77.30 50.65 77.30 49.25Q77.30 46.80 78.60 44.57Q79.90 42.35 81.70 41.00Q85.70 38.05 87.90 38.05Q91.20 38.15 91.20 40.40Q91.20 41.20 90.50 41.97Q89.80 42.75 89.20 42.75Q88.60 42.75 87.55 41.70Q86.50 40.65 85.25 40.65Q84 40.65 83.20 41.67Q82.40 42.70 82.40 44.30Q82.40 46.90 85.15 46.90Q86.25 46.90 86.97 46.35Q87.70 45.80 88 45.15Q88.85 43.45 89.55 43.45Q90.15 43.45 90.15 44.05ZM106.65 65.45Q107.85 65.45 107.85 55.55Q107.85 53.45 107.80 52.45Q104.65 56.70 104.65 60.10Q104.65 62.05 105.13 63.75Q105.60 65.45 106.65 65.45M98.75 39.50L98.55 41.50Q98.55 43.65 99.98 45.12Q101.40 46.60 103.45 46.65Q104.70 46.60 105.78 45.92Q106.85 45.25 107.30 44.65L107.70 44.00Q107.75 42.30 108.20 41.15Q108.90 39.20 109.85 39.20L110 39.20Q110.55 39.40 110.55 40.80Q110.55 41.40 109.40 43.15L109 43.80Q109 47.65 109.05 49.50Q111.95 46.75 113.35 45.00Q114 44.50 114.38 44.50Q114.75 44.50 114.75 44.87Q114.75 45.25 114.10 45.80Q112.60 47.00 109.10 50.85L109.25 58.50Q109.25 64.70 108.40 67.90Q107.55 71.10 105.20 71.10Q103.30 71.10 102.05 69.15Q100.80 67.20 100.80 64.90Q100.80 60.50 102.63 57.27Q104.45 54.05 107.80 50.75Q107.70 47.15 107.70 46.80Q107.70 46.45 107.43 46.45Q107.15 46.45 106.80 46.95Q105.05 48.80 104.25 49.55Q102.10 51.65 99.92 51.65Q97.75 51.65 96.48 50.20Q95.20 48.75 95.20 46.07Q95.20 43.40 96.23 41.17Q97.25 38.95 98.15 38.95Q98.75 38.95 98.75 39.50Z"/></g></g> </svg>